<?xml version="1.0" standalone="no"?>
<!DOCTYPE svg PUBLIC "-//W3C//DTD SVG 20010904//EN"
 "http://www.w3.org/TR/2001/REC-SVG-20010904/DTD/svg10.dtd">
<svg version="1.0" xmlns="http://www.w3.org/2000/svg"
 width="300.000000pt" height="122.000000pt" viewBox="0 0 300.000000 122.000000"
 preserveAspectRatio="xMidYMid meet">
<metadata>
Created by potrace 1.10, written by Peter Selinger 2001-2011
</metadata>
<g transform="translate(0.000000,122.000000) scale(0.100000,-0.100000)"
fill="#000000" stroke="none">
<path d="M1058 1209 c-429 -28 -571 -74 -679 -219 -42 -57 -120 -212 -179
-358 -24 -58 -38 -81 -48 -77 -21 8 -49 -12 -56 -41 -4 -15 -22 -46 -41 -68
-40 -49 -55 -85 -55 -132 0 -33 1 -34 40 -34 39 0 40 -1 40 -35 0 -121 127
-228 270 -228 143 0 270 107 270 227 l0 36 898 0 897 0 2 -41 c5 -85 67 -174
149 -215 56 -27 174 -26 230 4 86 44 144 137 144 229 0 37 2 41 32 47 l32 6
-27 28 c-33 34 -47 71 -36 97 22 55 11 83 -58 156 -38 39 -85 80 -107 91 -45
23 -142 44 -241 52 -110 10 -179 17 -196 22 -9 3 -52 53 -95 112 -102 138
-147 187 -212 229 -63 40 -165 78 -243 88 -30 4 -63 9 -74 12 -37 9 -559 18
-657 12z m657 -29 c182 -24 295 -70 378 -154 29 -28 92 -106 141 -172 l90
-121 45 -1 c68 -3 246 -22 301 -32 93 -18 148 -52 210 -130 l31 -39 -64 29
c-80 36 -148 48 -209 38 -42 -8 -52 -6 -87 17 -56 37 -123 55 -208 55 l-73 0
0 36 c0 91 -115 238 -235 301 -111 58 -307 112 -467 129 -35 3 -65 8 -68 9 -3
2 -57 6 -120 10 -63 4 -123 9 -132 11 -10 3 -18 1 -18 -4 0 -11 -70 -18 -245
-28 -124 -6 -267 -26 -338 -48 -68 -21 -143 -72 -189 -130 -39 -50 -124 -209
-167 -316 -21 -51 -50 -79 -112 -108 -10 -4 103 255 152 348 108 209 219 265
599 304 164 17 647 14 785 -4z m-230 -51 c422 -44 649 -146 740 -334 23 -46
24 -63 27 -233 l3 -182 -502 0 -503 0 0 369 c0 203 3 376 6 385 6 17 20 16
229 -5z m-245 -374 l0 -375 -275 0 -275 0 -28 63 c-34 74 -85 135 -127 152
-53 23 -155 28 -203 12 -23 -8 -42 -13 -42 -11 0 3 25 59 55 125 145 320 231
374 630 395 66 4 122 8 124 10 2 2 35 4 73 4 l68 0 0 -375z m1270 -137 l65
-30 -44 -15 c-54 -19 -108 -73 -141 -140 -24 -50 -27 -52 -66 -53 -29 0 -44 5
-48 16 -3 9 -6 71 -6 139 l0 124 88 -6 c68 -4 101 -12 152 -35z m-1969 -43
c38 -20 72 -67 114 -158 49 -106 48 -117 -14 -117 -50 0 -50 0 -95 63 -69 96
-85 108 -155 114 -92 7 -124 -8 -218 -104 -76 -77 -84 -83 -122 -83 -33 0 -41
4 -41 18 1 31 26 88 55 126 28 36 28 37 39 14 24 -48 76 -29 76 28 0 28 7 38
43 63 79 54 104 61 201 55 48 -2 101 -11 117 -19z m2284 -24 c68 -28 70 -29
73 -67 2 -21 8 -43 13 -48 5 -6 9 -20 9 -33 0 -13 5 -23 12 -23 6 0 8 -3 5 -7
-4 -3 2 -17 14 -29 25 -27 14 -35 -34 -27 -29 4 -45 16 -77 59 -77 103 -157
132 -232 86 -40 -25 -132 -154 -125 -175 2 -6 14 8 26 31 12 24 25 42 28 39 2
-3 0 -14 -6 -25 -6 -12 -11 -37 -11 -57 0 -105 105 -183 207 -156 38 11 90 56
112 98 26 52 5 131 -48 176 -67 56 -149 54 -216 -4 -50 -44 -43 -21 8 29 58
57 100 64 162 27 26 -15 65 -51 88 -83 23 -31 48 -57 55 -58 6 -1 19 -2 27 -2
19 -2 20 -44 1 -105 -28 -92 -99 -158 -192 -177 -45 -9 -64 -9 -112 5 -75 22
-153 98 -170 167 -17 68 -16 88 8 88 11 0 20 5 20 10 0 6 -28 10 -65 10 l-64
0 44 88 c73 145 138 188 289 191 68 1 92 -4 151 -28z m-2662 -44 c12 -37 -16
-85 -39 -66 -15 12 -19 55 -8 84 10 24 36 14 47 -18z m2764 -49 c-3 -22 -4
-21 -11 4 -5 16 -5 36 0 45 7 16 8 15 11 -4 3 -13 3 -33 0 -45z m-2464 -18
c12 -10 45 -50 72 -89 28 -39 56 -71 63 -71 21 0 5 -77 -27 -130 -92 -153
-339 -159 -437 -11 -14 22 -30 58 -35 81 -9 41 -8 43 36 89 25 27 53 58 62 71
8 12 36 35 62 51 41 26 54 30 114 28 47 -1 75 -7 90 -19z m2305 -47 c53 -40
68 -75 63 -150 -2 -34 -58 -91 -101 -104 -52 -16 -104 -4 -145 32 -80 70 -59
189 40 235 39 18 110 12 143 -13z m-425 -59 l-17 -34 -804 2 -804 3 -14 33
-13 33 834 -1 834 -1 -16 -35z"/>
<path d="M1328 999 c16 -18 17 -210 0 -227 -9 -9 50 -12 268 -13 153 0 330 -4
392 -7 61 -4 117 -5 122 -4 17 6 11 22 -7 22 -10 1 -40 30 -66 65 -57 75 -132
128 -213 151 -80 22 -516 33 -496 13z m432 -20 c124 -18 180 -51 271 -161 l42
-50 -361 4 -362 3 0 110 0 110 167 -2 c93 -2 202 -8 243 -14z"/>
<path d="M1360 600 c0 -6 28 -10 65 -10 37 0 65 4 65 10 0 6 -28 10 -65 10
-37 0 -65 -4 -65 -10z"/>
<path d="M905 1015 c-155 -20 -201 -42 -285 -132 -109 -119 -121 -113 220
-113 160 0 293 -1 298 -2 4 -2 8 57 9 130 l2 132 -72 -1 c-40 -1 -117 -7 -172
-14z m225 -122 l0 -103 -202 -1 c-112 -1 -240 -2 -285 -3 -46 0 -83 1 -83 3 0
2 28 35 63 74 72 82 125 110 237 128 118 18 254 25 262 14 4 -5 8 -56 8 -112z"/>
<path d="M315 441 c-44 -11 -70 -27 -99 -61 -121 -144 55 -334 231 -249 81 39
116 141 74 219 -36 68 -130 110 -206 91z m125 -33 c59 -30 95 -97 84 -155 -16
-85 -118 -145 -209 -122 -146 37 -166 219 -31 280 55 25 102 24 156 -3z"/>
</g>
</svg>
