<?xml version="1.0" standalone="no"?>
<!DOCTYPE svg PUBLIC "-//W3C//DTD SVG 20010904//EN"
 "http://www.w3.org/TR/2001/REC-SVG-20010904/DTD/svg10.dtd">
<svg version="1.0" xmlns="http://www.w3.org/2000/svg"
 width="124.000000pt" height="115.000000pt" viewBox="0 0 124.000000 115.000000"
 preserveAspectRatio="xMidYMid meet">
<metadata>
Created by potrace 1.10, written by Peter Selinger 2001-2011
</metadata>
<g transform="translate(0.000000,115.000000) scale(0.100000,-0.100000)"
fill="#cd853f" stroke="none">
<path d="M10 639 c0 -397 3 -499 13 -493 10 6 10 4 0 -7 -8 -7 -13 -38 -13
-71 l0 -58 613 0 612 0 -3 135 c-2 91 -7 133 -14 129 -7 -4 -7 0 1 13 5 11 10
82 10 162 0 124 -2 141 -14 131 -19 -16 -21 -136 -3 -143 10 -4 10 -6 1 -6
-10 -1 -13 -47 -13 -196 l0 -195 -134 0 c-79 0 -137 -4 -141 -10 -3 -6 -12
-10 -18 -10 -7 0 -6 4 3 10 10 6 -121 10 -382 10 -246 -1 -399 -4 -403 -10 -3
-6 -12 -10 -18 -10 -7 0 -6 4 3 10 11 7 4 10 -27 10 l-43 0 0 131 c0 101 -3
129 -13 123 -9 -6 -9 -4 1 7 15 16 17 133 2 124 -5 -3 -10 -1 -10 4 0 6 5 11
10 11 6 0 10 118 10 335 l0 335 173 0 c125 0 177 4 186 13 11 10 13 10 7 0 -6
-10 26 -13 143 -13 94 0 151 4 151 10 0 6 5 10 11 10 5 0 7 -5 4 -11 -5 -7 18
-10 72 -9 43 1 153 1 246 1 l167 -1 0 -102 c0 -70 3 -98 10 -88 6 9 10 10 10
3 0 -6 -5 -15 -10 -18 -5 -3 -10 -38 -10 -76 0 -53 3 -68 13 -63 9 6 10 4 0
-7 -8 -8 -13 -44 -13 -97 0 -74 2 -83 15 -72 13 11 15 55 15 281 l0 269 -314
0 c-242 0 -315 -3 -319 -12 -4 -10 -6 -10 -6 0 -1 9 -66 12 -291 12 l-290 0 0
-501z"/>
<path d="M294 1047 c-62 -46 -193 -151 -234 -185 -13 -11 -12 -12 6 -3 12 6
25 7 29 3 3 -4 5 -2 3 4 -2 6 55 58 127 114 142 112 152 120 144 120 -3 0 -37
-24 -75 -53z"/>
<path d="M513 1070 c-22 -16 -44 -26 -48 -22 -5 4 -5 2 -2 -4 6 -10 -17 -31
-164 -146 -25 -20 -50 -34 -54 -30 -5 4 -5 2 -2 -4 4 -7 -17 -30 -51 -55 -31
-24 -68 -54 -82 -66 -14 -13 -32 -21 -40 -18 -8 4 -11 3 -7 -1 4 -4 1 -14 -6
-23 -14 -18 44 23 116 82 37 31 50 37 61 28 9 -8 16 -8 20 -2 4 5 1 13 -5 17
-8 5 -6 12 8 23 129 104 169 136 173 140 5 6 84 70 119 98 33 26 3 12 -36 -17z"/>
<path d="M629 1062 c-25 -20 -86 -71 -134 -112 -158 -134 -206 -171 -215 -165
-6 3 -8 0 -5 -7 2 -7 -19 -31 -47 -53 -29 -22 -59 -47 -67 -55 -9 -8 -38 -32
-64 -54 -26 -21 -47 -43 -47 -49 0 -6 6 -3 12 6 7 9 29 29 49 44 21 15 62 50
92 76 31 27 64 50 74 51 10 2 18 8 18 14 0 21 130 126 145 117 6 -4 9 -1 8 7
-2 7 3 12 10 10 8 -1 11 2 8 7 -4 5 33 43 80 83 137 115 139 117 134 118 -3 0
-26 -17 -51 -38z"/>
<path d="M789 1062 c-24 -20 -65 -54 -91 -75 -26 -21 -53 -43 -60 -50 -26 -25
-135 -107 -142 -107 -4 0 -4 5 0 12 4 7 3 8 -4 4 -6 -4 -9 -13 -6 -20 3 -7
-19 -31 -53 -57 -32 -24 -69 -54 -83 -67 -14 -13 -44 -37 -67 -53 -23 -16 -43
-32 -45 -36 -1 -5 -45 -41 -96 -82 -50 -41 -92 -76 -92 -79 0 -2 7 1 15 8 8 6
19 9 25 5 6 -4 9 -3 8 2 -2 5 20 29 48 53 73 65 260 219 314 260 44 34 89 71
208 173 31 26 62 45 69 43 7 -3 12 -1 10 5 -1 5 21 30 48 54 61 54 56 60 -6 7z"/>
<path d="M1000 1091 c-8 -6 -18 -7 -24 -4 -5 3 -6 1 -3 -4 4 -6 -19 -30 -49
-53 -31 -24 -65 -51 -76 -62 -10 -10 -24 -16 -31 -12 -7 4 -9 3 -4 -1 4 -5 -1
-18 -10 -29 -18 -20 72 47 92 69 6 6 36 30 68 54 31 24 57 45 57 47 0 6 -3 5
-20 -5z"/>
<path d="M1114 1057 c-28 -23 -90 -75 -138 -115 -47 -40 -91 -70 -96 -67 -6 4
-7 -1 -3 -12 3 -10 3 -15 -1 -12 -4 4 -17 -3 -29 -15 -26 -24 -106 -92 -185
-157 -30 -24 -73 -60 -97 -79 -23 -19 -68 -57 -100 -84 -46 -41 -58 -47 -67
-35 -8 12 -9 11 -5 -2 7 -21 4 -25 -83 -93 -41 -33 -85 -70 -98 -83 -13 -13
-29 -20 -35 -17 -7 4 -9 4 -5 0 4 -5 -22 -33 -58 -63 -52 -44 -63 -58 -53 -69
6 -8 14 -14 16 -14 3 0 1 6 -5 13 -12 14 -7 18 131 131 32 26 63 44 69 40 6
-4 8 -3 4 4 -3 6 13 26 36 46 34 30 44 34 57 23 14 -10 14 -10 4 3 -10 13 1
27 73 85 47 39 98 81 113 95 83 75 186 155 197 154 8 -1 12 1 9 5 -4 7 21 31
154 142 123 104 144 119 154 112 5 -3 7 -2 4 4 -6 9 41 59 53 57 3 0 15 10 27
23 35 36 13 26 -43 -20z"/>
<path d="M1075 1060 c-4 -6 -11 -7 -17 -4 -7 4 -8 2 -4 -5 6 -9 11 -9 22 0 14
11 18 19 10 19 -3 0 -8 -5 -11 -10z"/>
<path d="M976 1031 c-12 -13 -14 -21 -6 -26 5 -3 7 -12 4 -18 -4 -7 -3 -8 2
-4 5 5 10 13 10 18 1 5 2 10 4 12 3 4 8 37 6 37 -2 0 -11 -9 -20 -19z"/>
<path d="M509 1023 c-12 -16 -12 -17 2 -6 9 7 20 9 24 5 5 -4 5 -1 1 6 -9 16
-11 15 -27 -5z"/>
<path d="M83 977 c0 -8 6 -14 14 -14 9 0 10 4 2 14 -6 7 -12 13 -14 13 -1 0
-2 -6 -2 -13z"/>
<path d="M450 961 c0 -6 4 -13 10 -16 6 -3 7 1 4 9 -7 18 -14 21 -14 7z"/>
<path d="M223 935 c0 -8 4 -12 9 -9 5 3 6 10 3 15 -9 13 -12 11 -12 -6z"/>
<path d="M746 885 c-15 -14 -51 -44 -79 -65 -29 -22 -75 -59 -103 -83 -97 -80
-197 -162 -254 -207 -31 -25 -81 -64 -109 -88 -29 -23 -57 -39 -62 -36 -5 3
-8 1 -7 -6 2 -6 -17 -29 -42 -51 l-45 -41 60 44 c33 24 66 51 73 60 13 18 38
26 28 10 -3 -5 1 -9 9 -9 11 0 12 4 4 13 -7 9 -1 18 23 35 18 12 38 27 43 33
29 32 78 65 87 60 6 -4 8 -3 5 3 -7 10 5 21 163 148 52 42 105 85 118 97 17
16 25 18 36 9 10 -9 16 -9 21 -1 4 6 3 10 -2 9 -28 -5 -22 6 22 46 28 24 47
44 44 45 -3 0 -18 -11 -33 -25z"/>
<path d="M373 885 c0 -8 4 -12 9 -9 5 3 6 10 3 15 -9 13 -12 11 -12 -6z"/>
<path d="M490 896 c0 -2 8 -10 18 -17 15 -13 16 -12 3 4 -13 16 -21 21 -21 13z"/>
<path d="M1130 854 c-30 -25 -75 -62 -98 -82 -24 -20 -54 -43 -65 -51 -12 -8
-34 -25 -49 -39 -16 -14 -31 -21 -39 -17 -7 5 -10 4 -6 -2 6 -10 -51 -62 -143
-133 -25 -19 -56 -44 -70 -57 -59 -52 -115 -91 -124 -86 -5 3 -6 1 -3 -5 8
-12 -72 -74 -85 -66 -4 3 -6 9 -4 13 3 4 -1 8 -9 8 -13 0 -13 -3 0 -17 14 -16
14 -19 -3 -31 -62 -45 -260 -209 -272 -225 -14 -18 -14 -18 6 -2 23 20 39 24
28 6 -4 -7 -3 -8 5 -4 6 4 9 11 6 16 -3 5 13 24 36 42 23 18 58 47 78 64 20
17 59 49 87 70 67 52 198 156 204 164 3 3 75 62 160 130 179 143 226 181 287
233 25 20 49 35 54 31 5 -3 8 -2 7 3 -2 4 15 25 37 45 55 51 42 47 -25 -8z"/>
<path d="M780 880 c-9 -6 -10 -10 -3 -10 6 0 15 5 18 10 8 12 4 12 -15 0z"/>
<path d="M776 851 c-4 -5 -2 -12 3 -15 5 -4 12 -2 15 3 4 5 2 12 -3 15 -5 4
-12 2 -15 -3z"/>
<path d="M86 773 c-6 -14 -5 -15 5 -6 7 7 10 15 7 18 -3 3 -9 -2 -12 -12z"/>
<path d="M197 772 c-15 -16 -15 -19 -2 -19 8 0 13 3 10 5 -3 3 0 11 6 19 17
20 5 16 -14 -5z"/>
<path d="M525 781 c-3 -6 3 -14 13 -20 14 -7 19 -6 19 4 0 7 -7 11 -15 7 -10
-3 -13 -1 -8 6 4 7 5 12 2 12 -3 0 -7 -4 -11 -9z"/>
<path d="M1069 764 c-12 -15 -4 -34 14 -34 8 0 7 3 -2 9 -7 5 -10 14 -7 20 4
6 11 9 16 6 5 -3 11 -2 14 3 8 14 -23 10 -35 -4z"/>
<path d="M616 733 c-6 -14 -5 -15 5 -6 7 7 10 15 7 18 -3 3 -9 -2 -12 -12z"/>
<path d="M1145 716 c-22 -18 -58 -50 -80 -70 -22 -20 -45 -34 -53 -31 -7 2
-11 1 -8 -4 7 -10 -18 -33 -27 -26 -4 3 -5 2 -2 -1 6 -8 -7 -21 -110 -105 -95
-77 -125 -103 -195 -164 -25 -23 -66 -58 -92 -78 -26 -21 -53 -44 -60 -50 -7
-7 -46 -39 -86 -71 -40 -32 -70 -61 -67 -64 3 -3 16 5 29 17 15 14 30 20 37
16 7 -5 10 -4 6 2 -3 5 9 25 28 43 l35 34 27 -25 28 -24 -22 25 -23 26 48 41
c221 193 383 323 393 317 7 -4 9 -3 6 3 -8 13 17 36 27 25 4 -4 6 0 4 8 -2 9
4 14 14 14 10 -1 16 2 13 6 -3 5 27 35 67 68 67 55 117 102 107 102 -2 0 -22
-16 -44 -34z"/>
<path d="M173 725 c0 -8 4 -12 9 -9 5 3 6 10 3 15 -9 13 -12 11 -12 -6z"/>
<path d="M1011 706 c-9 -11 -9 -16 0 -22 7 -4 9 -3 5 4 -3 5 0 12 6 15 7 2 10
7 7 11 -3 4 -12 0 -18 -8z"/>
<path d="M246 692 c-3 -5 1 -17 8 -27 12 -17 13 -17 11 3 -2 26 -11 37 -19 24z"/>
<path d="M576 688 c3 -5 10 -6 15 -3 13 9 11 12 -6 12 -8 0 -12 -4 -9 -9z"/>
<path d="M760 696 c0 -2 8 -10 18 -17 15 -13 16 -12 3 4 -13 16 -21 21 -21 13z"/>
<path d="M605 679 c-3 -4 2 -6 10 -5 21 3 28 13 10 13 -9 0 -18 -4 -20 -8z"/>
<path d="M890 626 c0 -2 8 -10 18 -17 15 -13 16 -12 3 4 -13 16 -21 21 -21 13z"/>
<path d="M930 617 c0 -2 6 -10 14 -16 11 -9 16 -9 22 1 4 7 4 10 -1 6 -4 -4
-14 -3 -22 3 -7 6 -13 9 -13 6z"/>
<path d="M85 571 c-6 -11 13 -26 22 -17 4 3 1 6 -6 6 -7 0 -9 5 -6 10 3 6 4
10 1 10 -3 0 -7 -4 -11 -9z"/>
<path d="M1134 526 c-94 -84 -182 -155 -188 -150 -3 2 -4 1 -1 -2 2 -4 -14
-22 -37 -40 -35 -27 -45 -31 -58 -21 -13 10 -13 10 -3 -4 14 -17 16 -15 -102
-114 -33 -27 -62 -52 -65 -55 -28 -30 -95 -78 -103 -73 -6 3 -7 1 -3 -6 7 -11
18 -5 86 48 13 11 29 17 34 14 5 -3 6 -2 3 4 -9 15 109 117 124 107 5 -3 8 0
7 8 -2 7 4 12 12 10 8 -2 12 -1 8 3 -4 4 25 35 64 69 68 59 98 80 84 58 -3 -6
-2 -13 3 -17 6 -3 8 3 6 15 -3 14 10 32 47 62 73 61 144 127 137 128 -4 0 -29
-20 -55 -44z"/>
<path d="M143 455 c0 -8 4 -12 9 -9 5 3 6 10 3 15 -9 13 -12 11 -12 -6z"/>
<path d="M936 432 c-3 -5 1 -9 9 -9 8 0 12 4 9 9 -3 4 -7 8 -9 8 -2 0 -6 -4
-9 -8z"/>
<path d="M1156 409 c6 -10 -217 -195 -230 -191 -6 2 -8 1 -4 -3 4 -4 -11 -23
-34 -42 -50 -42 -73 -54 -82 -45 -4 3 -4 -1 -1 -10 4 -11 -1 -21 -17 -29 -13
-7 -26 -13 -29 -12 -3 1 -6 -5 -6 -12 0 -17 -10 -24 116 82 81 68 112 88 95
61 -4 -7 -3 -8 5 -4 6 4 9 11 6 16 -4 6 136 135 203 185 11 9 9 11 -7 11 -11
0 -18 -3 -15 -7z"/>
<path d="M269 393 c-13 -16 -12 -17 4 -4 9 7 17 15 17 17 0 8 -8 3 -21 -13z"/>
<path d="M1066 402 c-3 -6 1 -15 8 -21 8 -7 17 -8 20 -3 3 6 -1 15 -8 21 -8 7
-17 8 -20 3z"/>
<path d="M216 343 c-6 -14 -5 -15 5 -6 7 7 10 15 7 18 -3 3 -9 -2 -12 -12z"/>
<path d="M305 331 c-3 -5 -2 -12 3 -15 5 -3 9 1 9 9 0 17 -3 19 -12 6z"/>
<path d="M970 285 c-7 -8 -16 -13 -19 -10 -4 2 -8 -3 -8 -11 0 -11 6 -9 24 8
13 12 23 23 23 25 0 7 -8 2 -20 -12z"/>
<path d="M1100 189 c-47 -39 -102 -85 -122 -102 -21 -17 -36 -33 -34 -35 4 -4
127 96 209 170 71 63 36 42 -53 -33z"/>
<path d="M723 215 c0 -8 4 -12 9 -9 5 3 6 10 3 15 -9 13 -12 11 -12 -6z"/>
<path d="M816 212 c-3 -5 1 -9 9 -9 8 0 12 4 9 9 -3 4 -7 8 -9 8 -2 0 -6 -4
-9 -8z"/>
<path d="M199 183 c-13 -16 -12 -17 4 -4 16 13 21 21 13 21 -2 0 -10 -8 -17
-17z"/>
<path d="M899 153 c-13 -16 -12 -17 4 -4 16 13 21 21 13 21 -2 0 -10 -8 -17
-17z"/>
<path d="M919 143 c-13 -16 -12 -17 4 -4 9 7 17 15 17 17 0 8 -8 3 -21 -13z"/>
<path d="M1095 150 c-3 -6 1 -7 9 -4 18 7 21 14 7 14 -6 0 -13 -4 -16 -10z"/>
<path d="M296 122 c-3 -5 1 -9 9 -9 8 0 12 4 9 9 -3 4 -7 8 -9 8 -2 0 -6 -4
-9 -8z"/>
<path d="M940 126 c0 -2 8 -10 18 -17 15 -13 16 -12 3 4 -13 16 -21 21 -21 13z"/>
<path d="M815 79 c-4 -6 -5 -12 -2 -15 2 -3 7 2 10 11 7 17 1 20 -8 4z"/>
</g>
</svg>
