<?xml version="1.0" standalone="no"?>
<!DOCTYPE svg PUBLIC "-//W3C//DTD SVG 20010904//EN"
 "http://www.w3.org/TR/2001/REC-SVG-20010904/DTD/svg10.dtd">
<svg version="1.0" xmlns="http://www.w3.org/2000/svg"
 width="300.000000pt" height="97.000000pt" viewBox="0 0 300.000000 97.000000"
 preserveAspectRatio="xMidYMid meet">
<metadata>
Created by potrace 1.10, written by Peter Selinger 2001-2011
</metadata>
<g transform="translate(0.000000,97.000000) scale(0.100000,-0.100000)"
fill="#000000" stroke="none">
<path d="M1370 935 c-7 -9 -18 -57 -24 -106 l-10 -90 -132 6 c-86 4 -135 2
-139 -4 -6 -11 -135 -7 -210 6 -22 4 -131 7 -242 7 -201 1 -202 1 -213 -22
-13 -29 -13 -62 0 -62 6 0 10 9 10 19 0 46 0 46 203 44 105 0 248 -5 317 -11
72 -5 132 -5 142 0 10 4 73 5 141 2 l124 -7 -5 -46 c-2 -25 -5 -47 -6 -48 -8
-10 -193 -11 -271 -2 -55 7 -165 13 -245 14 -80 0 -199 6 -264 13 -167 18
-164 19 -158 -71 5 -88 1 -92 -81 -73 -32 7 -61 9 -69 5 -7 -5 -35 -8 -63 -8
-57 1 -57 1 98 45 54 15 101 32 104 37 7 11 -44 2 -117 -23 -30 -10 -83 -26
-117 -35 -59 -17 -62 -19 -92 -76 -17 -33 -31 -68 -31 -79 0 -18 5 -20 53 -15
28 2 114 7 189 10 117 5 138 3 138 -9 0 -10 -13 -16 -42 -18 l-42 -3 -14 -57
c-24 -100 -5 -115 165 -123 l122 -7 27 54 c15 29 47 84 71 121 l44 68 117 -3
c133 -3 134 -4 147 -103 5 -41 4 -47 -6 -30 -67 112 -202 127 -287 31 -48 -55
-54 -147 -11 -207 36 -51 72 -69 131 -68 l53 2 -50 6 c-142 18 -200 162 -106
261 82 86 206 67 261 -40 35 -69 2 -165 -68 -199 -33 -17 -42 -31 -18 -31 8 0
35 20 59 44 33 32 47 55 52 85 l7 41 51 2 c66 2 76 2 112 -4 17 -3 37 -1 47 3
9 5 58 2 118 -7 84 -12 183 -14 549 -11 361 4 455 2 487 -9 35 -12 40 -12 52
3 6 9 12 27 12 41 0 13 3 21 8 18 4 -2 16 13 26 34 10 21 31 51 46 65 52 49
157 37 193 -22 5 -7 18 -22 30 -34 13 -12 18 -23 12 -27 -12 -9 -15 -72 -4
-72 5 0 10 15 10 33 2 28 2 29 6 5 4 -24 8 -26 59 -30 72 -4 84 1 118 52 27
41 28 45 16 94 -7 28 -13 87 -14 131 -1 44 -7 97 -15 117 -14 36 -16 37 -80
43 -36 3 -123 12 -193 20 -70 8 -142 15 -161 15 -28 0 -39 7 -66 45 -18 25
-35 45 -39 45 -4 0 -25 18 -47 40 -22 22 -71 68 -109 102 l-69 62 -266 2
c-146 1 -323 5 -392 9 -109 6 -127 4 -139 -10z m432 -24 l27 -1 -4 -117 c-3
-65 -8 -176 -11 -248 -4 -72 -7 -142 -7 -157 0 -33 12 -32 -249 -28 -173 2
-178 2 -178 -18 0 -11 8 -23 18 -26 9 -3 106 -7 215 -8 159 -3 196 -6 192 -16
-3 -8 -5 -37 -5 -65 l0 -52 -183 1 c-100 0 -205 4 -234 8 l-52 9 4 126 c10
299 26 562 36 588 11 29 65 32 259 16 80 -7 157 -12 172 -12z m406 -33 c25
-24 94 -91 152 -150 l107 -106 75 0 c42 0 93 -5 114 -11 38 -10 134 -19 204
-20 32 -1 37 -5 54 -43 14 -34 16 -56 11 -106 -6 -60 -8 -63 -29 -58 -12 3
-49 1 -81 -4 -39 -6 -63 -6 -69 0 -15 15 -271 13 -284 -2 -10 -13 -16 -38 -33
-148 -6 -36 -12 -66 -14 -68 -2 -2 -21 2 -42 9 -28 10 -104 13 -302 11 l-264
-2 7 31 c3 17 6 47 6 66 0 35 1 35 33 29 39 -8 469 -9 489 -1 22 9 19 43 -4
51 -12 3 -87 5 -167 3 -80 -2 -192 -2 -248 -1 l-102 2 5 133 c2 72 7 196 10
274 l6 142 67 4 c36 2 108 4 160 5 l94 2 45 -42z m-1438 -254 c107 -2 209 -9
226 -15 39 -12 186 -17 277 -9 l69 6 -6 -36 c-3 -19 -8 -111 -12 -205 l-7
-170 -151 0 -151 0 3 25 c1 13 -5 57 -14 98 -20 90 -24 92 -169 92 l-104 0
-41 -54 c-22 -30 -56 -84 -76 -120 l-36 -66 -76 1 c-99 0 -169 12 -188 31 -13
13 -13 21 3 71 18 55 19 56 58 59 l40 3 -3 125 c-1 69 -5 138 -8 154 l-6 29
88 -7 c49 -4 177 -10 284 -12z m-437 -140 c57 -6 57 -7 57 -39 0 -19 2 -40 5
-47 4 -11 -15 -14 -97 -15 -57 -1 -130 -5 -163 -9 -72 -8 -67 1 17 31 35 12
86 30 113 39 48 17 80 36 60 36 -27 -1 -242 -82 -251 -95 -14 -19 -34 -19 -34
-1 0 8 12 35 28 61 l27 46 50 -6 c28 -3 62 -2 75 4 14 5 32 8 40 6 8 -2 41 -7
73 -11z m2398 -122 c4 -4 10 -25 14 -46 l7 -40 -34 33 c-39 39 -66 51 -115 51
-53 0 -97 -26 -124 -73 -20 -36 -24 -39 -27 -20 -5 35 17 101 35 105 29 6 238
-3 244 -10z m207 -19 c24 -63 23 -70 -11 -114 -31 -41 -36 -44 -84 -45 l-50
-1 -17 56 c-32 106 -31 109 11 116 21 4 45 8 53 10 8 1 31 3 51 4 31 1 38 -3
47 -26z m-1130 -12 c5 -15 -85 -17 -243 -5 -27 2 -76 3 -107 4 -32 0 -58 4
-58 8 0 12 404 5 408 -7z m515 11 c9 -1 17 -6 17 -10 0 -12 -359 -24 -448 -16
-42 4 -72 11 -72 18 0 8 72 11 243 11 133 -1 250 -2 260 -3z"/>
<path d="M1411 843 c-11 -42 -31 -182 -31 -216 0 -22 2 -22 200 -25 l200 -3 0
140 0 141 -180 0 -179 0 -10 -37z m351 -26 c0 -26 -1 -81 -1 -122 l-1 -75
-181 0 -182 0 7 63 c4 34 12 88 18 119 l12 57 145 3 c81 2 155 3 165 2 16 -1
19 -8 18 -47z"/>
<path d="M1888 869 c-16 -9 -18 -27 -18 -139 l0 -128 63 -4 c89 -4 339 9 383
21 31 9 41 7 66 -10 25 -18 28 -26 28 -77 -1 -31 -7 -84 -15 -117 -17 -69 -20
-231 -5 -240 6 -4 10 29 10 92 0 54 7 122 15 153 8 30 15 85 15 121 0 62 -2
67 -24 73 -13 3 -36 23 -52 43 -15 21 -68 77 -117 124 -88 85 -90 87 -150 93
-88 9 -179 7 -199 -5z m359 -121 l104 -103 -43 -13 c-26 -7 -117 -14 -230 -16
-166 -3 -188 -1 -189 13 -3 47 3 216 8 224 4 6 53 8 126 4 l121 -6 103 -103z"/>
<path d="M1962 406 c7 -8 15 -12 17 -11 5 6 -10 25 -20 25 -5 0 -4 -6 3 -14z"/>
<path d="M2450 172 c-1 -29 30 -81 64 -107 42 -32 113 -37 163 -12 29 15 83
74 83 90 0 16 -18 5 -30 -19 -8 -14 -34 -37 -58 -51 -75 -44 -154 -18 -197 66
-13 25 -24 40 -25 33z"/>
<path d="M2740 60 c0 -5 5 -10 11 -10 5 0 7 5 4 10 -3 6 -8 10 -11 10 -2 0 -4
-4 -4 -10z"/>
</g>
</svg>
